HIERARCHY
ROOT Hips
{
	OFFSET -6.501393 103.544830 -3.308209
	CHANNELS 6 Xposition Yposition Zposition Zrotation Yrotation Xrotation 
	JOINT Chest
	{
		OFFSET 3.490766 13.188873 -0.149589
		CHANNELS 6 Xposition Yposition Zposition Zrotation Yrotation Xrotation 
		JOINT Chest2
		{
			OFFSET 2.498665 20.695694 4.950911
			CHANNELS 6 Xposition Yposition Zposition Zrotation Yrotation Xrotation 
			JOINT Chest3
			{
				OFFSET 2.586676 14.483231 2.522879
				CHANNELS 6 Xposition Yposition Zposition Zrotation Yrotation Xrotation 
				JOINT Neck
				{
					OFFSET 3.658716 16.642105 2.875753
					CHANNELS 6 Xposition Yposition Zposition Zrotation Yrotation Xrotation 
					JOINT Head
					{
						OFFSET 0.562498 9.917938 3.338517
						CHANNELS 6 Xposition Yposition Zposition Zrotation Yrotation Xrotation 
						End Site #name: Head_end_site
						{
							OFFSET 0.623727 9.927261 3.299727
						}
					}
				}
				JOINT LeftCollar
				{
					OFFSET 3.158933 11.826752 7.207877
					CHANNELS 6 Xposition Yposition Zposition Zrotation Yrotation Xrotation 
					JOINT LeftUpArm
					{
						OFFSET 9.662516 -4.699112 13.894368
						CHANNELS 6 Xposition Yposition Zposition Zrotation Yrotation Xrotation 
						JOINT LeftLowArm
						{
							OFFSET -26.061760 -12.379883 17.528591
							CHANNELS 6 Xposition Yposition Zposition Zrotation Yrotation Xrotation 
							JOINT LeftHand
							{
								OFFSET -23.105013 -13.493835 13.602276
								CHANNELS 6 Xposition Yposition Zposition Zrotation Yrotation Xrotation 
								End Site #name: LeftHand_end_site
								{
									OFFSET -5.049747 -2.949127 2.972858
								}
							}
						}
					}
				}
				JOINT RightCollar
				{
					OFFSET -1.958067 14.041336 0.903037
					CHANNELS 6 Xposition Yposition Zposition Zrotation Yrotation Xrotation 
					JOINT RightUpArm
					{
						OFFSET -7.902977 5.073425 -14.842493
						CHANNELS 6 Xposition Yposition Zposition Zrotation Yrotation Xrotation 
						JOINT RightLowArm
						{
							OFFSET -31.237156 3.028915 12.441875
							CHANNELS 6 Xposition Yposition Zposition Zrotation Yrotation Xrotation 
							JOINT RightHand
							{
								OFFSET 1.770481 -9.929611 28.270538
								CHANNELS 6 Xposition Yposition Zposition Zrotation Yrotation Xrotation 
								End Site #name: RightHand_end_site
								{
									OFFSET 0.386944 -2.170212 6.178812
								}
							}
						}
					}
				}
			}
		}
	}
	JOINT LeftUpLeg
	{
		OFFSET 6.008414 -1.501137 7.878114
		CHANNELS 6 Xposition Yposition Zposition Zrotation Yrotation Xrotation 
		JOINT LeftLowLeg
		{
			OFFSET -32.490929 -13.194344 31.847103
			CHANNELS 6 Xposition Yposition Zposition Zrotation Yrotation Xrotation 
			JOINT LeftFoot
			{
				OFFSET -27.394722 -30.609779 17.695694
				CHANNELS 6 Xposition Yposition Zposition Zrotation Yrotation Xrotation 
				JOINT LeftToe
				{
					OFFSET -14.301807 2.204399 18.712517
					CHANNELS 6 Xposition Yposition Zposition Zrotation Yrotation Xrotation 
					End Site #name: LeftToe_end_site
					{
						OFFSET -6.634720 15.950195 16.159538
					}
				}
			}
		}
	}
	JOINT RightUpLeg
	{
		OFFSET -6.008467 1.500946 -7.878115
		CHANNELS 6 Xposition Yposition Zposition Zrotation Yrotation Xrotation 
		JOINT RightLowLeg
		{
			OFFSET -7.669543 -46.691193 2.263450
			CHANNELS 6 Xposition Yposition Zposition Zrotation Yrotation Xrotation 
			JOINT RightFoot
			{
				OFFSET 16.419405 -39.122486 -14.156796
				CHANNELS 6 Xposition Yposition Zposition Zrotation Yrotation Xrotation 
				JOINT RightToe
				{
					OFFSET -13.268997 -16.468420 10.596312
					CHANNELS 6 Xposition Yposition Zposition Zrotation Yrotation Xrotation 
					End Site #name: RightToe_end_site
					{
						OFFSET -19.207935 -1.991539 13.661808
					}
				}
			}
		}
	}
}
MOTION
Frames: 4
Frame Time: 0.033333
-80.004837 99.745262 9.619845 67.703717 75.286655 65.960776 3.548687 13.116089 -0.249252 -7.979077 8.371654 -20.510459 2.493304 20.544041 4.965785 -3.818843 10.579322 -4.597411 2.586669 14.290980 2.509839 -2.898202 -5.798015 8.985276 3.657344 16.454082 2.767952 -3.942909 -7.378553 -21.532105 0.588213 9.906072 3.297205 -3.086564 3.166642 9.630899 3.205761 11.791405 7.061903 -3.509800 12.843881 -3.173901 9.573348 -4.415560 13.829315 5.604075 16.860132 -0.061175 -25.877375 -12.415566 17.344082 -21.702530 -4.837741 -12.697646 -22.992346 -13.505375 13.406284 3.004318 5.336049 5.441953 -1.956711 13.959507 1.016036 9.768257 6.195496 -13.240566 -7.763250 5.088664 -14.688820 14.467092 -22.272226 -2.814718 -30.797878 2.950020 12.384262 -21.922003 -29.699360 -36.052231 1.673192 -9.898186 27.991304 -1.554456 0.385413 -0.819535 6.017242 -1.518172 7.825747 36.824156 2.382320 28.847236 -32.145855 -13.041383 31.688982 -0.853676 -0.978754 7.843339 -27.163948 -30.386915 17.597181 3.446670 7.507993 2.844533 -14.201694 2.186623 18.667347 3.313629 5.722868 -0.871948 -5.937840 1.527732 -8.044632 -24.825738 2.194894 -5.065239 -7.588470 -46.422871 2.199069 2.841011 11.809673 3.099888 16.155735 -38.732201 -13.947111 17.154428 -13.237818 8.894995 -13.069033 -16.355310 10.428686 -7.050146 -1.855071 -3.272209 
-78.979759 100.019081 9.788630 72.138580 75.580319 70.613699 3.555042 13.111852 -0.249019 -8.158852 8.520341 -20.851613 2.490009 20.553118 4.961883 -4.322194 10.972088 -4.377038 2.590834 14.289532 2.512008 -3.067101 -5.964108 8.874119 3.660955 16.451977 2.769182 -4.078804 -6.809756 -21.723393 0.589944 9.912908 3.292289 -3.033797 3.448538 9.672859 3.196621 11.797488 7.061400 -3.494297 13.024976 -3.516443 9.581096 -4.416203 13.831245 5.661957 17.125262 -0.510969 -25.882046 -12.420866 17.347084 -22.088564 -4.568327 -12.431574 -22.997717 -13.508536 13.404702 3.301266 5.409831 5.855964 -1.955230 13.963539 1.018364 9.712783 6.140647 -13.024048 -7.758899 5.085138 -14.692369 13.866813 -21.828760 -2.216492 -30.799582 2.949491 12.385321 -22.417521 -28.868423 -36.781566 1.676901 -9.901082 27.997791 -1.555013 0.742672 -1.053447 6.016738 -1.512827 7.827188 37.066549 1.710596 29.671981 -32.150738 -13.044619 31.687973 -0.677193 -0.392712 7.790609 -27.171816 -30.389086 17.604013 3.683923 7.060042 2.843563 -14.204481 2.185284 18.665884 3.023573 6.086514 -0.712430 -5.938137 1.529470 -8.045027 -24.660350 1.821315 -4.996529 -7.591872 -46.436348 2.190454 2.432135 11.689935 2.787330 16.151508 -38.729103 -13.945430 17.449492 -12.794400 9.062879 -13.071652 -16.358297 10.436732 -6.973254 -1.531617 -3.685760 
-76.474205 100.672806 10.204474 80.761509 76.404422 79.197785 3.557025 13.106340 -0.242418 -9.254365 8.827194 -22.754029 2.495592 20.559273 4.968309 -4.745819 11.427749 -3.942516 2.611575 14.280490 2.514816 -3.358295 -5.447768 9.494111 3.655705 16.449034 2.763188 -4.261370 -6.691737 -21.814320 0.595441 9.925854 3.295531 -3.869294 4.052081 10.081064 3.194266 11.798272 7.063886 -2.797656 13.981915 -3.943208 9.570653 -4.408393 13.837683 4.734787 17.655860 -2.113015 -25.887083 -12.437733 17.330759 -22.492822 -4.840761 -12.434376 -23.005507 -13.513664 13.396786 3.938295 5.440459 5.349582 -1.959976 13.964664 1.021979 8.955189 6.035469 -13.470005 -7.742196 5.086576 -14.698339 13.230742 -20.224245 -1.451238 -30.804661 2.953900 12.389855 -24.027188 -26.601167 -38.092327 1.678587 -9.901131 28.010138 -1.977226 2.071397 -0.824933 6.017450 -1.507775 7.833422 36.857063 -0.041863 31.588098 -32.155392 -13.043916 31.693327 -1.637683 0.833055 6.979547 -27.173519 -30.393950 17.610975 4.218037 5.485481 2.115385 -14.214059 2.191029 18.665092 3.003620 6.523694 -0.616326 -5.933869 1.540683 -8.043366 -24.175412 1.641159 -4.430770 -7.584078 -46.450386 2.180297 1.139791 11.288500 2.039182 16.146048 -38.724892 -13.932194 18.427659 -12.449571 10.143113 -13.069649 -16.366486 10.441006 -7.402154 -1.102802 -4.140065 
-72.790123 101.572014 10.816345 93.190671 76.021822 91.425921 3.562675 13.085057 -0.234541 -10.498724 8.956157 -23.644011 2.501023 20.568663 4.977414 -5.296259 12.361683 -3.140501 2.629042 14.270821 2.519221 -3.420637 -4.966985 9.247959 3.654490 16.447420 2.767292 -5.096319 -6.070337 -21.796507 0.595528 9.939793 3.291631 -4.679078 4.645732 10.189130 3.187560 11.800133 7.055902 -1.941065 15.517392 -4.454924 9.559430 -4.404647 13.840417 4.031976 18.483795 -4.531277 -25.891514 -12.462789 17.318254 -23.531714 -4.789320 -12.012462 -23.026091 -13.508633 13.392440 4.982823 5.229712 5.515313 -1.956166 13.970138 1.037354 7.506780 5.428580 -13.303564 -7.732755 5.084140 -14.693896 11.446046 -18.736761 -0.623738 -30.807383 2.950418 12.394745 -26.018395 -22.904220 -40.462652 1.684462 -9.898209 28.025309 -2.469233 3.278268 -1.126967 6.021406 -1.488150 7.828370 36.860967 -2.275987 33.855810 -32.168465 -13.046508 31.701864 -1.929735 2.147425 6.439960 -27.189425 -30.411503 17.615585 5.141241 3.210457 1.548300 -14.217333 2.197015 18.655979 2.766654 7.102809 -0.438280 -5.917372 1.548767 -8.042408 -23.634907 0.618843 -4.077816 -7.579295 -46.468918 2.158260 -0.597453 10.334133 0.399012 16.136820 -38.711063 -13.928691 19.868110 -12.425825 10.900564 -13.072700 -16.386526 10.451078 -7.143361 -0.679240 -4.562440 
